<?xml version="1.0" encoding="UTF-8"?>
<svg version="1.1" xmlns="http://www.w3.org/2000/svg" width="3508" height="2480">
<path d="M0 0 C0.6698719 0.04044434 1.3397438 0.08088867 2.02991486 0.12255859 C57.46227147 3.48179672 112.84628862 8.50853177 168 15 C169.71274109 15.20112396 169.71274109 15.20112396 171.46008301 15.40631104 C264.39188832 26.35369331 356.73781159 41.34110938 474 67 C475.106922 67.24858765 476.21384399 67.49717529 477.35430908 67.7532959 C578.42207317 90.51308338 678.20800262 119.87167536 1005.33398438 259.50878906 C1008.31315665 261.17516125 1011.30424559 262.81886033 1014.296875 264.4609375 C1038.34338256 277.68388575 1061.99628931 291.50672809 1085.17089844 306.20898438 C1087.96450623 307.97753001 1090.76636557 309.73227854 1093.5703125 311.484375 C1106.09995405 319.34343335 1118.29319033 327.61925688 1130.37548828 336.1484375 C1132.76545528 337.83453143 1135.16068188 339.51273416 1137.55859375 341.1875 C1152.64929081 351.74804291 1167.47576928 362.67292698 1182 374 C1183.14971491 374.89065685 1184.29945528 375.78128084 1185.44921875 376.671875 C1192.41035035 382.08320959 1199.20758282 387.65110366 1205.91015625 393.37890625 C1208.77577694 395.82303334 1211.69405522 398.19695734 1214.625 400.5625 C1219.38950808 404.43929769 1223.9364389 408.51471532 1228.45703125 412.671875 C1230.57067054 414.60694262 1232.70659848 416.50208297 1234.875 418.375 C1242.63135314 425.12382686 1250.21058383 432.10101089 1257.41015625 439.44140625 C1259.12867317 441.12614397 1260.92107285 442.68602809 1262.75 444.25 C1270.12838247 450.62549553 1276.93257869 457.62431473 1283.2578125 465.0390625 C1285.2543789 467.28631885 1287.36012946 469.38894927 1289.5 471.5 C1293.54818477 475.50736274 1297.30825355 479.66526835 1301 484 C1301.90450448 485.0524646 1302.80949265 486.1045136 1303.71484375 487.15625 C1306.30710751 490.1696611 1308.89017332 493.19082277 1311.47119141 496.21386719 C1312.89627954 497.87882164 1314.32803478 499.53776082 1315.76171875 501.1953125 C1323.21387216 509.85034584 1330.15361321 518.86110506 1337 528 C1337.58749023 528.78246094 1338.17498047 529.56492187 1338.78027344 530.37109375 C1346.52188325 540.70440527 1354.00709139 551.14541605 1361 562 C1361.69125977 563.06589355 1361.69125977 563.06589355 1362.39648438 564.15332031 C1403.18033689 627.18043552 1430.42551999 696.43181322 1440 771 C1440.19916016 772.49152588 1440.19916016 772.49152588 1440.40234375 774.01318359 C1452.70844657 870.19782148 1424.07076662 969.76020368 1332.05859375 1114.84765625 C1326.75043772 1121.69719045 1321.23095106 1128.35008054 1315.59765625 1134.93359375 C1313.27347258 1137.65770986 1311.04076416 1140.44669993 1308.8125 1143.25 C1304.1611473 1148.97409711 1299.11140944 1154.30011095 1294.02270508 1159.63574219 C1290.56552562 1163.26128099 1287.16925495 1166.9213875 1283.84765625 1170.671875 C1278.51438708 1176.62448049 1272.88463645 1182.26595093 1267.22485352 1187.90551758 C1265.4332405 1189.6917467 1263.64706945 1191.48329347 1261.86132812 1193.27539062 C1256.61994508 1198.51981969 1251.38097781 1203.70063347 1245.7331543 1208.51196289 C1242.79420047 1211.03526526 1240.00454187 1213.71744404 1237.1875 1216.375 C1232.14089056 1221.10196376 1226.96665852 1225.57509143 1221.56640625 1229.8984375 C1219.02440637 1231.98001427 1216.60470665 1234.1503838 1214.1875 1236.375 C1209.8122041 1240.35755281 1205.25270734 1244.0181807 1200.58129883 1247.64111328 C1196.78487785 1250.58775546 1193.04190563 1253.58793949 1189.33105469 1256.64160156 C1132.49092394 1303.37934262 1068.61984529 1342.49777372 1003.97998047 1377.38867188 C1000.89030474 1379.05931417 997.80652316 1380.74053774 994.72265625 1382.421875 C966.01469548 1398.00777031 936.75207003 1412.51634617 907 1426 C905.33638428 1426.75941895 905.33638428 1426.75941895 903.63916016 1427.53417969 C833.92339075 1459.34418904 762.19946302 1486.41035788 689.38452148 1510.21929932 C686.97357778 1511.00865073 684.56387184 1511.80169608 682.15429688 1512.59521484 C581.58992964 1545.65064357 478.09181375 1570.58591744 -23.34765625 1637.90234375 C-24.40238632 1637.96321671 -25.45711639 1638.02408966 -26.54380798 1638.08680725 C-83.31499594 1641.2483553 -140.04720503 1642.34366707 -196.89212418 1642.25713807 C-202.41996955 1642.24959608 -207.94774318 1642.2523276 -213.47558594 1642.26074219 C-270.35786261 1642.34504379 -327.18006034 1641.28450106 -383.98046875 1637.96875 C-385.21854782 1637.89692505 -386.45662689 1637.8251001 -387.73222351 1637.75109863 C-463.94383127 1633.23343268 -540.04322789 1626.37190047 -1323.52490234 1421.62207031 C-1326.60587634 1420.18396498 -1329.69131547 1418.75620658 -1332.77874756 1417.33206177 C-1363.07638861 1403.34287204 -1392.86032706 1388.26987453 -1422 1372 C-1424.11578815 1370.8266475 -1426.23167901 1369.65348021 -1428.34765625 1368.48046875 C-1439.0304246 1362.54339853 -1449.65039911 1356.53602227 -1460.08007812 1350.16455078 C-1462.23830594 1348.85545278 -1464.40729574 1347.56543473 -1466.578125 1346.27734375 C-1496.47852203 1328.51673393 -1525.88141501 1309.48359837 -1554 1289 C-1555.1142334 1288.19006592 -1555.1142334 1288.19006592 -1556.25097656 1287.36376953 C-1567.6287448 1279.07651849 -1578.86763902 1270.61370228 -1590 1262 C-1590.62245605 1261.51934082 -1591.24491211 1261.03868164 -1591.88623047 1260.54345703 C-1599.38455661 1254.74301622 -1606.7081603 1248.77669895 -1613.9140625 1242.6171875 C-1616.75605565 1240.19308244 -1619.65290065 1237.84268601 -1622.5625 1235.5 C-1627.63607493 1231.37309794 -1632.43741142 1226.99897442 -1637.23046875 1222.5546875 C-1639.45918393 1220.49886278 -1641.70767919 1218.48383043 -1644 1216.5 C-1651.62912034 1209.8722017 -1659.04936043 1203.03677853 -1666.13671875 1195.83203125 C-1668.0500043 1193.95083435 -1670.03071254 1192.18957675 -1672.0625 1190.4375 C-1677.16518505 1186.03244767 -1681.86171447 1181.3679292 -1686.25 1176.25 C-1689.18281528 1172.84159305 -1692.30098279 1169.65628432 -1695.5 1166.5 C-1699.2478917 1162.79698188 -1702.84424046 1159.0235326 -1706.265625 1155.015625 C-1708.25912581 1152.69885379 -1710.31554388 1150.44580016 -1712.375 1148.1875 C-1716.21928245 1143.92254692 -1719.89526905 1139.5513915 -1723.50390625 1135.0859375 C-1725.31198156 1132.85060183 -1727.13112763 1130.62811795 -1728.96484375 1128.4140625 C-1737.37447799 1118.22444723 -1745.26840157 1107.71085006 -1753 1097 C-1753.5141748 1096.29262695 -1754.02834961 1095.58525391 -1754.55810547 1094.85644531 C-1773.0873337 1069.32675044 -1788.78878667 1042.13200007 -1803 1014 C-1803.43554199 1013.13971191 -1803.87108398 1012.27942383 -1804.31982422 1011.39306641 C-1840.91400653 938.50015654 -1857.34654375 853.44459272 -1829.02429199 686.27297974 C-1807.80705746 622.27590652 -1774.16502531 564.46308638 -1732 512 C-1730.88238281 510.6078125 -1730.88238281 510.6078125 -1729.7421875 509.1875 C-1720.41511108 497.68744879 -1710.71881881 486.56558333 -1700.60766602 475.7512207 C-1699.46855679 474.51039603 -1698.34554681 473.25470331 -1697.23413086 471.98901367 C-1690.22849089 464.03682492 -1682.73589793 456.58463726 -1675.23413086 449.10375977 C-1672.9355279 446.81053252 -1670.6423397 444.5119876 -1668.34960938 442.21289062 C-1666.86750813 440.73145 -1665.3850968 439.2503195 -1663.90234375 437.76953125 C-1663.22815903 437.0933223 -1662.5539743 436.41711334 -1661.85935974 435.72041321 C-1657.95351188 431.83347606 -1653.9441892 428.12327198 -1649.76705933 424.52894592 C-1647.18002474 422.29051741 -1644.69078668 419.95673277 -1642.1875 417.625 C-1637.49105346 413.28119787 -1632.63725046 409.19583574 -1627.65234375 405.18359375 C-1625.00732363 403.00602932 -1622.46787475 400.74681237 -1619.9375 398.4375 C-1616.00482867 394.86234425 -1611.96764535 391.49108734 -1607.79296875 388.203125 C-1605.76262665 386.60156843 -1603.7459513 384.98882216 -1601.73828125 383.359375 C-1591.36661762 374.95862826 -1580.71581441 366.95481016 -1570 359 C-1569.17886719 358.38801758 -1568.35773438 357.77603516 -1567.51171875 357.14550781 C-1556.83226524 349.18701554 -1546.05395384 341.4294686 -1535 334 C-1533.906875 333.26442871 -1532.81375 332.52885742 -1531.6875 331.77099609 C-1516.5983817 321.62623978 -1501.48750499 311.53009706 -1486 302 C-1484.98856934 301.37593262 -1483.97713867 300.75186523 -1482.93505859 300.10888672 C-1452.09682931 281.11933917 -1420.56490183 263.48537365 -1388.41015625 246.81640625 C-1385.09355207 245.09558707 -1381.78738703 243.35857403 -1378.49609375 241.58984375 C-1352.93946491 227.87862783 -1326.54454057 215.76449026 -1300.07818604 203.93035889 C-1297.99811608 202.99915661 -1295.91953272 202.06470818 -1293.84130859 201.12939453 C-1206.19197467 161.71164147 -1114.83448516 129.82626547 -331 -4 C-329.70680847 -4.05327454 -328.41361694 -4.10654907 -327.08123779 -4.16143799 C-237.1062322 -7.83242384 -146.75375799 -7.41751732 0 0 Z " fill="#E5E9F4" transform="translate(1957,587)"/>
<path d="M0 0 C452.76 0 905.52 0 1372 0 C1372 134.64 1372 269.28 1372 408 C919.24 408 466.48 408 0 408 C0 273.36 0 138.72 0 0 Z " fill="#009EE3" transform="translate(1048,1515)"/>
<path d="M0 0 C92.18145248 -0.06623841 92.18145248 -0.06623841 137.81561279 -0.08468628 C138.49687964 -0.08496239 139.17814649 -0.08523851 139.88005779 -0.08552299 C154.69028974 -0.09151055 169.50052184 -0.09705067 184.31075414 -0.10213066 C191.575008 -0.10462506 198.83926182 -0.1072182 206.10351562 -0.10986328 C207.18776407 -0.11025556 207.18776407 -0.11025556 208.29391652 -0.11065576 C231.67008727 -0.11915937 255.04624828 -0.13416763 278.42241314 -0.15259444 C302.46964981 -0.17151556 326.51688109 -0.1837838 350.56412507 -0.18782998 C353.97041068 -0.18840618 357.37669628 -0.18905745 360.78298187 -0.18975449 C361.78846681 -0.18995676 361.78846681 -0.18995676 362.81426457 -0.19016311 C374.21042652 -0.19265966 385.60656825 -0.20327534 397.00272319 -0.21583293 C407.16864518 -0.22645972 417.33455283 -0.22958783 427.50047997 -0.22700275 C433.35293798 -0.22573027 439.20534728 -0.2275874 445.05779648 -0.23841095 C501.03571869 -0.33682588 501.03571869 -0.33682588 528.1875 3.75 C529.32711182 3.91846436 530.46672363 4.08692871 531.64086914 4.26049805 C568.42559585 9.97035848 606.83269865 21.36255736 634 48 C634.93585938 48.89912109 634.93585938 48.89912109 635.890625 49.81640625 C639.73867167 53.82912158 642.55652113 58.34516591 645.25 63.1875 C645.5795166 63.76258301 645.9090332 64.33766602 646.24853516 64.93017578 C652.31553958 76.3721427 652.4357116 88.95085342 652.38095093 101.56578064 C652.38441351 103.31594097 652.38918209 105.06609912 652.39513266 106.81625277 C652.40758991 111.59418009 652.40149641 116.37192632 652.39217401 121.14985406 C652.38536208 126.31491625 652.39587538 131.47994818 652.40411377 136.64500427 C652.41743075 146.75125621 652.41458235 156.85744117 652.40587585 166.9636957 C652.39909132 175.18028129 652.39818591 183.39684816 652.4014473 191.61343575 C652.401907 192.78438542 652.40236669 193.9553351 652.40284032 195.1617681 C652.40379953 197.54079592 652.40477217 199.91982374 652.4057581 202.29885156 C652.41430613 224.59028037 652.40448726 246.88167214 652.388357 269.17309488 C652.37495612 288.28395355 652.37728117 307.39475755 652.39111328 326.50561523 C652.40718248 348.71758679 652.41348036 370.92952589 652.40427649 393.14150244 C652.40332088 395.51191778 652.40237777 397.88233313 652.4014473 400.25274849 C652.40098447 401.41892643 652.40052164 402.58510438 652.40004479 403.78662105 C652.3974588 411.98910742 652.40181752 420.19157314 652.40888596 428.39405632 C652.41731612 438.39627835 652.41498903 448.39842978 652.39904372 458.40064376 C652.39118116 463.50010399 652.38803495 468.59944669 652.39799118 473.69890594 C652.40698052 478.37398689 652.40193587 483.04884219 652.38605852 487.72390289 C652.38272857 489.40813762 652.38436418 491.09239172 652.39168589 492.77661382 C652.4859722 516.28271894 646.02949061 536.14358714 629.3125 553.1875 C618.67659011 563.60399003 606.51715808 570.92430859 593 577 C592.38543945 577.27827637 591.77087891 577.55655273 591.13769531 577.84326172 C564.42182296 589.73692117 536.21526269 592.16309091 507.35380554 592.12025452 C505.1605663 592.12069107 502.96732712 592.12156752 500.7740882 592.12284368 C494.77202051 592.12507212 488.76997077 592.12109 482.76790535 592.11606562 C476.28613737 592.11173755 469.80437035 592.11320922 463.32260132 592.1139679 C452.10068724 592.1146641 440.87877863 592.11139551 429.65686607 592.10573006 C417.89201518 592.09980576 406.1271666 592.09596264 394.36231422 592.09487724 C393.26358848 592.09477413 393.26358848 592.09477413 392.14266625 592.09466894 C388.42249896 592.09433059 384.70233166 592.09402921 380.98216436 592.09374207 C354.65680917 592.09164366 328.331457 592.0849119 302.00610352 592.07543945 C276.43709326 592.0662498 250.86808384 592.05918566 225.29907227 592.05493164 C223.69020849 592.054661 222.08134472 592.05439029 220.47248095 592.05411953 C207.39903448 592.05193064 194.32558798 592.04988811 181.25214148 592.04788104 C120.83475812 592.0385002 60.41738266 592.01842805 0 592 C0 473.86 0 355.72 0 234 C66.99 234 133.98 234 203 234 C203 304.95 203 375.9 203 449 C235.62875 448.9175 268.2575 448.835 301.875 448.75 C317.29130127 448.72631348 317.29130127 448.72631348 333.01904297 448.70214844 C342.2848158 448.66890164 342.2848158 448.66890164 351.55056763 448.63043213 C355.65648054 448.61352441 359.76224767 448.60756405 363.86819458 448.60845947 C369.12574078 448.60923737 374.38290402 448.59070092 379.64035058 448.55891085 C381.55723632 448.55047499 383.47416565 448.5484967 385.39106154 448.55417585 C403.94577453 448.60213625 424.78559799 446.84084689 439.125 433.5625 C444.16895943 427.90715155 447.11871371 421.26614474 447.13142776 413.67266464 C447.13526891 412.80923533 447.13911005 411.94580602 447.1430676 411.05621219 C447.14176787 409.64027833 447.14176787 409.64027833 447.14044189 408.19573975 C447.14341302 407.18932914 447.14638414 406.18291853 447.1494453 405.14601064 C447.15813745 401.76367321 447.15964099 398.38137116 447.16113281 394.99902344 C447.16576061 392.57794621 447.17078522 390.15686971 447.17617798 387.73579407 C447.18930749 381.15099387 447.19578472 374.56620104 447.20018864 367.98139095 C447.20295255 363.86860716 447.20719018 359.75582572 447.21169281 355.64304352 C447.22388447 344.25255353 447.23418392 332.86206543 447.2375679 321.47156906 C447.23778747 320.74272206 447.23800703 320.01387506 447.23823325 319.26294179 C447.23845153 318.53236571 447.23866981 317.80178964 447.2388947 317.04907489 C447.23933816 315.56868664 447.23978473 314.0882984 447.24023438 312.60791016 C447.2404558 311.8735888 447.24067723 311.13926744 447.24090537 310.38269392 C447.24485256 298.48668248 447.26230462 286.59073233 447.2855939 274.69474456 C447.30931995 262.47688278 447.32177033 250.25905173 447.32293582 238.04116654 C447.32385189 231.18306785 447.32958695 224.32504902 447.34775543 217.46697235 C447.36478651 211.01556521 447.36639965 204.56426913 447.35761642 198.11284447 C447.35684516 195.74573804 447.36120048 193.37862351 447.37107468 191.01153755 C447.38377059 187.77824248 447.37792975 184.54548616 447.36749268 181.31219482 C447.37554908 180.37716181 447.38360548 179.44212879 447.39190602 178.47876143 C447.33806498 171.33905578 446.43636445 165.49173637 441.25 160.1875 C429.15207579 152.0446664 414.645411 152.70287478 400.5677948 152.7215271 C398.8324059 152.71651535 397.09701933 152.710637 395.36163598 152.70397437 C390.62513754 152.68826676 385.88869856 152.68474881 381.15217721 152.68332577 C376.03236815 152.67961548 370.91259109 152.66445196 365.7928009 152.65071106 C356.93307522 152.62848539 348.073361 152.61344394 339.21361351 152.60334396 C326.40406077 152.5887308 313.59454797 152.5631866 300.78501872 152.53501268 C280.00016305 152.48959256 259.21530161 152.45295802 238.43041992 152.421875 C218.24518828 152.39166986 198.05997072 152.35731057 177.87475586 152.31738281 C176.62960711 152.31492126 175.38445837 152.31245972 174.10157784 152.30992357 C167.85475417 152.29754859 161.60793066 152.28509213 155.36110723 152.27259517 C103.57408816 152.16909896 51.78705929 152.08149547 0 152 C0 101.84 0 51.68 0 0 Z " fill="#F6A500" transform="translate(1048,887)"/>
<path d="M0 0 C2.14892036 -0.0008742 4.2978405 -0.0026291 6.44675952 -0.00517833 C12.29847339 -0.00961382 18.15011293 -0.00170098 24.00181735 0.00837779 C30.33214908 0.01706527 36.66247708 0.0140884 42.99281311 0.01257324 C53.94288943 0.01152773 64.89293832 0.01769895 75.84300804 0.02904892 C87.31820985 0.04091252 98.7934021 0.04858676 110.26861 0.05075455 C110.98404523 0.05089203 111.69948046 0.05102951 112.43659555 0.05117115 C116.07042855 0.05184789 119.70426155 0.05245063 123.33809457 0.0530249 C149.02787784 0.05721761 174.71764866 0.07066957 200.40742493 0.08963013 C225.3533878 0.10802035 250.29934725 0.1221771 275.24531555 0.13064575 C276.01524346 0.1309088 276.78517137 0.13117186 277.57843043 0.13144288 C285.31087539 0.13408009 293.04332037 0.13663169 300.77576538 0.1391206 C316.52544737 0.14419203 332.27512913 0.14983454 348.02481079 0.15582275 C349.11085469 0.15623462 349.11085469 0.15623462 350.21883886 0.15665481 C372.39601613 0.1650953 394.5731913 0.17595455 416.75036621 0.18920898 C417.99202588 0.1899501 419.23368554 0.19069121 420.51297126 0.19145478 C445.37126335 0.20643896 470.22955389 0.22377872 495.08784485 0.24050903 C495.08784485 50.07050903 495.08784485 99.90050903 495.08784485 151.24050903 C482.84239563 151.24985474 470.59694641 151.25920044 457.98042297 151.26882935 C418.77248805 151.30155659 379.56460101 151.35385595 340.35670611 151.41842999 C334.26366796 151.4284471 328.17062955 151.43829129 322.07759094 151.44802856 C320.8646077 151.44996994 319.65162445 151.45191131 318.40188414 151.45391151 C298.77708833 151.48490877 279.1523042 151.50190582 259.52748853 151.51370326 C239.38151691 151.52612659 219.23560649 151.55365472 199.08967352 151.5951221 C186.66464503 151.62022357 174.23971809 151.63362875 161.81466389 151.63193861 C153.28731539 151.63190879 144.76007011 151.64658822 136.23276186 151.67267331 C131.31741837 151.68728004 126.40228653 151.69555593 121.48692513 151.68631172 C116.97706192 151.67797408 112.46762244 151.68831753 107.95782179 151.71284565 C106.33575368 151.71849058 104.71364489 151.71757462 103.09158951 151.70902148 C88.04032725 151.63652481 73.92300738 153.71244803 61.08784485 162.24050903 C60.4226886 162.66847778 59.75753235 163.09644653 59.07221985 163.53738403 C53.50391546 167.65308728 49.90828945 173.60357217 48.08784485 180.24050903 C46.96712977 187.88521106 47.28712985 195.69497444 47.34321594 203.39944458 C47.33835422 205.74126837 47.33090987 208.08308799 47.3210907 210.42489624 C47.30234874 216.7574563 47.32105723 223.08939401 47.34775496 229.42190528 C47.36815348 235.38630211 47.36315088 241.35066263 47.35934992 247.3150811 C47.35298501 259.13123 47.37622235 270.94713695 47.41548157 282.76321411 C47.45350959 294.2118567 47.46764812 305.660216 47.45649719 317.10891724 C47.44436657 329.60028309 47.44476119 342.09152474 47.46746886 354.58288032 C47.47941626 361.18657956 47.48681804 367.79018598 47.48153305 374.3938961 C47.4777605 380.60011752 47.49402673 386.80597666 47.52565384 393.01211548 C47.53412395 395.28687351 47.53585111 397.56166836 47.53027344 399.83643532 C47.52380541 402.94655299 47.54205175 406.05559639 47.56645203 409.16560364 C47.55889338 410.06113927 47.55133473 410.9566749 47.54354703 411.87934798 C47.66735488 420.82763487 50.96135715 427.89729227 57.05659485 434.39285278 C73.25575251 449.12785581 97.23340447 448.53621535 117.80464172 448.55935669 C119.72816376 448.56867852 121.65168184 448.57885045 123.57519531 448.58979797 C128.74556219 448.61685811 133.91590221 448.63217536 139.08632088 448.645226 C144.50885692 448.6609627 149.93133892 448.68771874 155.35383606 448.71325684 C165.59912205 448.75985943 175.84441842 448.7966926 186.08975554 448.82992971 C197.76345683 448.86828273 209.4371036 448.91765794 221.11075878 448.96791387 C245.10308028 449.07095795 269.09543688 449.16030701 293.08784485 449.24050903 C293.08646216 447.78941868 293.08646216 447.78941868 293.08505154 446.30901337 C293.06275832 422.66698687 293.04637493 399.02496176 293.03603268 375.38292694 C293.0308971 363.94938277 293.02390718 352.51584559 293.0124054 341.08230591 C293.00237427 331.10585732 292.99597156 321.12941379 292.99375635 311.1529603 C292.99246343 305.88051634 292.98946896 300.60808686 292.98211479 295.33564758 C292.97522089 290.35181662 292.97325442 285.36800581 292.97473717 280.38417053 C292.97446674 278.57528574 292.97254221 276.76640013 292.96863937 274.95751953 C292.94007746 261.0106134 293.5062436 247.19893911 294.08784485 233.24050903 C360.41784485 233.24050903 426.74784485 233.24050903 495.08784485 233.24050903 C495.08784485 351.05050903 495.08784485 468.86050903 495.08784485 590.24050903 C362.69524928 590.36164496 362.69524928 590.36164496 311.92801225 590.38500392 C298.65356401 590.39112721 285.37911585 590.39739079 272.10466788 590.40408701 C270.49913239 590.40489654 268.8935969 590.40570166 267.2880614 590.4065023 C241.71815605 590.41928999 216.14827068 590.44179169 190.57837739 590.4694007 C164.28628507 590.49773776 137.99420378 590.51617447 111.70209645 590.522254 C107.98372297 590.5231184 104.26534953 590.5240953 100.54697609 590.52514076 C99.81518737 590.52534303 99.08339865 590.5255453 98.32943452 590.5257537 C86.57636073 590.52929109 74.82332119 590.54318423 63.07026133 590.56100514 C51.23829345 590.57872269 39.40636232 590.58515716 27.57438167 590.58101317 C21.17012089 590.57909567 14.76596013 590.58199211 8.36171722 590.59812546 C2.48804459 590.6128135 -3.38546153 590.61340397 -9.25914212 590.60320572 C-11.37387062 590.60194682 -13.48860986 590.60567641 -15.60331748 590.61515858 C-32.25409193 590.68542269 -48.44290987 589.33326235 -64.47465515 584.55300903 C-65.33905212 584.29954712 -66.2034491 584.04608521 -67.09403992 583.78494263 C-99.44460512 573.92149641 -130.43012351 553.29814263 -146.91215515 523.24050903 C-153.55935357 510.62121828 -155.36159494 498.58605889 -155.29310608 484.47453308 C-155.29656905 482.90759072 -155.30133789 481.3406508 -155.30728781 479.77371591 C-155.31974091 475.49730411 -155.3136534 471.22109474 -155.30432916 466.94468248 C-155.29751503 462.32071312 -155.30803192 457.6967775 -155.31626892 453.07281494 C-155.32958614 444.02353545 -155.32673665 434.97433074 -155.318031 425.92504836 C-155.31124317 418.56280818 -155.3103425 411.20058889 -155.31360245 403.83834648 C-155.31406215 402.78862291 -155.31452185 401.73889934 -155.31499548 400.65736596 C-155.31595471 398.52444772 -155.31692735 396.39152948 -155.31791325 394.25861125 C-155.32646224 374.26988941 -155.31664268 354.28120888 -155.30051215 334.29249381 C-155.28712706 317.17708166 -155.28942309 300.06173061 -155.30326843 282.94631958 C-155.31936341 263.04082927 -155.32561979 243.13537523 -155.31643164 223.22987932 C-155.31547608 221.10225738 -155.31453296 218.97463543 -155.31360245 216.84701347 C-155.31313962 215.80038227 -155.31267679 214.75375106 -155.31219994 213.67540376 C-155.30962046 206.33482815 -155.31395884 198.99427571 -155.32104111 191.65370369 C-155.32950072 182.68883631 -155.32708374 173.72404763 -155.31119888 164.75918914 C-155.30337299 160.19353443 -155.30012588 155.62801037 -155.31014633 151.06235695 C-155.3971927 107.83182594 -155.3971927 107.83182594 -149.22465515 87.49050903 C-148.96974304 86.63255737 -148.71483093 85.77460571 -148.45219421 84.89065552 C-139.52641567 56.07915947 -120.47296156 32.72860533 -93.84965515 18.49050903 C-64.54497481 3.41885029 -32.51311466 -0.09970572 0 0 Z " fill="#6D6982" transform="translate(1923.9121551513672,887.7594909667969)"/>
<path d="M0 0 C2.53013975 2.20045487 4.90926718 4.48243982 7.265625 6.8671875 C8.31169922 7.88039063 8.31169922 7.88039063 9.37890625 8.9140625 C34.07233289 34.42261196 35.87088186 76.82162712 35.640625 110.1171875 C35.63514145 111.85452148 35.63514145 111.85452148 35.62954712 113.62695312 C35.49679119 149.49395446 33.94856153 193.1999221 6.9921875 220.27734375 C-10.70198527 237.0842729 -32.29883623 241.40301997 -56.0390625 241.1484375 C-76.28380277 240.5789652 -94.81912792 232.7672463 -108.89453125 218.05859375 C-112.33589272 213.95964729 -115.07401498 209.4998834 -117.734375 204.8671875 C-118.39566406 203.73216797 -118.39566406 203.73216797 -119.0703125 202.57421875 C-126.84814614 188.18274951 -130.3084849 171.89625636 -132.734375 155.8671875 C-132.85296875 155.10825195 -132.9715625 154.34931641 -133.09375 153.56738281 C-138.78038547 115.03027277 -138.17623179 66.67890297 -121.734375 30.8671875 C-121.46286621 30.27244629 -121.19135742 29.67770508 -120.91162109 29.06494141 C-116.28472207 19.13920827 -110.55040952 11.49850038 -102.734375 3.8671875 C-102.07824219 3.19042969 -101.42210937 2.51367188 -100.74609375 1.81640625 C-76.00024032 -22.08162351 -26.09370403 -20.35308914 0 0 Z " fill="#FDFEFE" transform="translate(1970.734375,1643.1328125)"/>
<path d="M0 0 C12.83250723 12.45384308 16.42932188 29.91191377 16.75828552 47.23995972 C16.77977586 50.04273772 16.77654909 52.84511338 16.77124023 55.64794922 C16.77563869 57.2049944 16.78094486 58.76203723 16.78707886 60.31907654 C16.79848712 63.64412748 16.8040314 66.96911547 16.80496025 70.29418564 C16.8069166 75.55638058 16.82505122 80.81844666 16.84571838 86.08059692 C16.89467753 99.13977512 16.92581987 112.19898768 16.94702148 125.25823975 C16.96355662 135.43267412 16.98636957 145.60699602 17.03004223 155.78135502 C17.05177221 161.00878821 17.05988107 166.23600739 17.05764949 171.46348262 C17.05931878 174.71429522 17.07338116 177.96496828 17.09086227 181.21573067 C17.09644938 182.71891959 17.09695844 184.22213757 17.09192467 185.72532845 C16.9020557 196.12670929 16.9020557 196.12670929 20.5 205.6875 C25.32881069 210.36541036 29.12334302 208.6875 36.5 208.6875 C36.5 217.2675 36.5 225.8475 36.5 234.6875 C10.53418035 239.30364572 10.53418035 239.30364572 0.5 233.6875 C-8.9869105 226.84953204 -12.39798733 220.37030564 -14.88671875 209.1640625 C-15.25597506 206.75938996 -15.25597506 206.75938996 -16.5 205.6875 C-17.06654297 206.79544922 -17.06654297 206.79544922 -17.64453125 207.92578125 C-26.21214683 223.71667929 -38.43150426 233.37063631 -55.5 238.6875 C-60.87838086 240.27985102 -66.43686288 239.95332939 -72 240 C-73.12148437 240.02900391 -74.24296875 240.05800781 -75.3984375 240.08789062 C-89.00481261 240.190017 -100.50743433 235.75135205 -110.71875 226.7265625 C-116.63601678 220.60446725 -120.05843254 213.38916989 -123.5 205.6875 C-123.8609375 204.88828125 -124.221875 204.0890625 -124.59375 203.265625 C-130.17632415 187.38416406 -130.71821408 166.90126037 -126.5 150.6875 C-126.29375 149.78128906 -126.0875 148.87507813 -125.875 147.94140625 C-122.1890173 132.84144304 -113.62827042 121.11177162 -100.5 112.6875 C-87.77423219 105.10335813 -74.41138835 99.66733364 -60.5 94.6875 C-37.43524123 87.4794529 -37.43524123 87.4794529 -20.93017578 71.55224609 C-19.32523904 67.69746396 -19.04850722 64.02488713 -19.06640625 59.8828125 C-19.0611644 59.15939667 -19.05592255 58.43598083 -19.05052185 57.69064331 C-19.04413758 56.16958898 -19.04539173 54.64848503 -19.05395508 53.12744141 C-19.06245411 50.82493288 -19.03367626 48.52491982 -19.00195312 46.22265625 C-18.9651035 38.24563187 -19.4320432 31.74028508 -23.5 24.6875 C-23.83 23.6975 -24.16 22.7075 -24.5 21.6875 C-26.28968662 20.55220743 -26.28968662 20.55220743 -28.5 19.6875 C-29.28117187 19.34589844 -30.06234375 19.00429687 -30.8671875 18.65234375 C-31.69476562 18.31332031 -32.52234375 17.97429687 -33.375 17.625 C-34.19742187 17.28339844 -35.01984375 16.94179687 -35.8671875 16.58984375 C-46.58618707 12.91612135 -62.20075046 12.79720885 -72.5 17.6875 C-80.74766882 21.83793979 -84.20063427 27.00089657 -87.58984375 35.3828125 C-88.75888166 39.62747374 -88.95668582 43.68074731 -89.125 48.0625 C-89.310625 52.331875 -89.310625 52.331875 -89.5 56.6875 C-100.06 56.6875 -110.62 56.6875 -121.5 56.6875 C-121.5 36.79700311 -119.05573033 17.48180045 -104.875 2.4375 C-79.52874665 -21.3600255 -26.63634072 -22.42851342 0 0 Z " fill="#FCFDFE" transform="translate(1581.5,1643.3125)"/>
<path d="M0 0 C1.18529297 -0.01160156 2.37058594 -0.02320313 3.59179688 -0.03515625 C19.13289915 0.01599384 34.05244839 4.27622542 46.0625 14.375 C47.27486328 15.29152344 47.27486328 15.29152344 48.51171875 16.2265625 C59.9493176 25.86006842 66.00648634 40.53368753 69.8125 54.625 C69.9990918 55.31343994 70.18568359 56.00187988 70.37792969 56.71118164 C76.56133321 81.48642548 75.0625 103.09051068 75.0625 129.375 C36.7825 129.375 -1.4975 129.375 -40.9375 129.375 C-41.82402704 174.99438192 -41.82402704 174.99438192 -23.25 216.8125 C-14.35429909 224.79197703 -5.17690587 226.47695507 6.453125 225.9140625 C15.10202499 225.13969247 21.51629066 221.34850444 27.5 215.1875 C38.52101946 201.45115691 40.00212048 184.34107239 41.0625 167.375 C51.9525 167.375 62.8425 167.375 74.0625 167.375 C74.63579629 190.11575295 71.02161549 211.67862813 57.0625 230.375 C56.55460937 231.07625 56.04671875 231.7775 55.5234375 232.5 C47.55395447 242.55018549 36.11371767 248.64555764 24.0625 252.375 C23.0828125 252.69339844 22.103125 253.01179688 21.09375 253.33984375 C3.61417939 258.22781646 -17.72853437 256.6941711 -33.9375 248.375 C-54.79661249 236.10879234 -64.23502978 216.59809548 -70.4140625 194.15625 C-70.86731674 192.39786135 -71.31284773 190.63746077 -71.75 188.875 C-72.04233521 187.72257812 -72.04233521 187.72257812 -72.34057617 186.546875 C-76.41428224 168.96656217 -76.31371435 150.8759366 -76.30810547 132.93554688 C-76.30794371 130.242563 -76.32174014 127.55026523 -76.34912109 124.85742188 C-76.67355518 90.35785975 -74.55562855 46.26206529 -49.20703125 19.65234375 C-48.45808594 18.90082031 -47.70914062 18.14929687 -46.9375 17.375 C-46.32261719 16.73691406 -45.70773437 16.09882812 -45.07421875 15.44140625 C-32.78427436 3.62516422 -16.52073937 -0.16117795 0 0 Z " fill="#FCFEFE" transform="translate(1339.9375,1628.625)"/>
<path d="M0 0 C11.04448743 9.46416688 16.69092693 21.94581323 19.4296875 36.08203125 C19.7596875 37.73203125 20.0896875 39.38203125 20.4296875 41.08203125 C20.4296875 46.03203125 20.4296875 50.98203125 20.4296875 56.08203125 C9.5396875 56.08203125 -1.3503125 56.08203125 -12.5703125 56.08203125 C-12.9003125 52.12203125 -13.2303125 48.16203125 -13.5703125 44.08203125 C-15.7193521 34.80722876 -18.99375285 26.18395478 -27.0703125 20.58203125 C-34.55167815 15.91973092 -41.58525174 15.68850999 -50.1953125 15.64453125 C-51.86400391 15.59522461 -51.86400391 15.59522461 -53.56640625 15.54492188 C-63.32964947 15.48240984 -72.19470232 17.69454168 -79.5703125 24.39453125 C-88.63835194 34.50207765 -88.41750729 46.44292198 -87.83544922 59.33105469 C-87.12432959 66.70941191 -83.76240708 72.6347625 -78.0703125 77.39453125 C-64.13640821 86.04468814 -49.06405373 90.90832582 -33.58618164 96.02709961 C-10.60630132 103.65866434 11.18327564 112.36250166 22.6796875 135.26953125 C30.49576232 154.6412684 29.78151731 179.14280544 22.07006836 198.42919922 C18.11302223 207.71908925 12.87413775 215.19591477 5.4296875 222.08203125 C4.75099609 222.76845703 4.75099609 222.76845703 4.05859375 223.46875 C-8.2088271 235.12432941 -27.9834333 240.80279086 -44.5703125 241.08203125 C-45.37130371 241.1063623 -46.17229492 241.13069336 -46.99755859 241.15576172 C-68.35253697 241.77536012 -87.57219852 239.23801684 -104.5703125 225.08203125 C-105.22773438 224.53804687 -105.88515625 223.9940625 -106.5625 223.43359375 C-116.81828595 214.08943322 -123.03471091 198.72463902 -124.5703125 185.08203125 C-124.68233157 181.12230435 -124.66427451 177.16790323 -124.6328125 173.20703125 C-124.601875 167.70015625 -124.601875 167.70015625 -124.5703125 162.08203125 C-113.6803125 162.08203125 -102.7903125 162.08203125 -91.5703125 162.08203125 C-91.5703125 166.70203125 -91.5703125 171.32203125 -91.5703125 176.08203125 C-90.21697454 186.41661203 -87.00423098 194.97630357 -78.67578125 201.6171875 C-69.94363585 207.6924278 -61.11995692 209.4278772 -50.6328125 209.33203125 C-49.79041016 209.33976562 -48.94800781 209.3475 -48.08007812 209.35546875 C-36.88203059 209.32098669 -26.16111762 206.58618033 -17.390625 199.26171875 C-9.01944198 190.38754619 -6.88175633 178.86340732 -7.16015625 167.015625 C-7.80587288 160.82289502 -10.20472559 156.23998886 -13.5703125 151.08203125 C-13.98023437 150.42847656 -14.39015625 149.77492188 -14.8125 149.1015625 C-24.08118564 136.52263198 -42.17993101 131.05834679 -56.14575195 125.91796875 C-72.99204223 119.70121583 -89.35362175 113.2761118 -103.5703125 102.08203125 C-104.61058594 101.27572266 -104.61058594 101.27572266 -105.671875 100.453125 C-114.42743891 92.75825716 -118.49778637 80.17801731 -120.5703125 69.08203125 C-120.75335937 68.15003906 -120.93640625 67.21804688 -121.125 66.2578125 C-123.78539146 47.28502076 -121.10630058 26.12777784 -109.53125 10.5234375 C-99.10590701 -2.45632219 -84.52391089 -11.55931338 -67.76879883 -13.73266602 C-44.45334503 -15.69784419 -19.16957718 -14.97449579 0 0 Z " fill="#FCFEFE" transform="translate(2295.5703125,1642.91796875)"/>
<path d="M0 0 C13.520665 8.37716965 19.25685631 22.55078686 22.828125 37.41796875 C30.81301621 73.76989662 33.91464739 131.02917479 17.6875 165.4375 C17.38118652 166.10579834 17.07487305 166.77409668 16.75927734 167.46264648 C11.63047774 178.33246129 4.60377577 186.29485064 -6.9375 190.4375 C-18.63705123 193.60584271 -32.14414444 193.88482406 -43 188 C-56.20968236 180.05538677 -61.97481069 168.14357321 -65.68774414 153.60351562 C-67.11141865 147.75872478 -68.24396647 141.96726462 -69 136 C-69.09023437 135.32904297 -69.18046875 134.65808594 -69.2734375 133.96679688 C-74.3489279 94.76892171 -76.68551494 41.73276505 -53.8125 7.75 C-40.60169515 -5.16723141 -16.51122038 -9.84266753 0 0 Z " fill="#019EE3" transform="translate(1943,1663)"/>
<path d="M0 0 C10.89 0 21.78 0 33 0 C33 21.12 33 42.24 33 64 C45.87 64 58.74 64 72 64 C72 73.57 72 83.14 72 93 C59.13 93 46.26 93 33 93 C33.0629129 115.38378446 33.13812351 137.76741764 33.23571491 160.15107536 C33.28063746 170.544717 33.32006031 180.93832464 33.34643555 191.33203125 C33.36944428 200.39355661 33.40287446 209.45497407 33.44870156 218.51641381 C33.47259497 223.31222696 33.49134918 228.10793351 33.49761391 232.90380478 C33.50368233 237.42315226 33.52374547 241.94222711 33.55427551 246.46147346 C33.56302763 248.11496268 33.56678421 249.76848756 33.56500816 251.42199898 C33.38359824 264.04643252 33.38359824 264.04643252 37 276 C39.20254116 277.76249635 39.20254116 277.76249635 41.875 278.0625 C42.71804688 278.23910156 43.56109375 278.41570312 44.4296875 278.59765625 C45.27789063 278.73042969 46.12609375 278.86320312 47 279 C47.77770752 279.16677246 48.55541504 279.33354492 49.35668945 279.50537109 C51.89121149 279.97964297 54.2899213 280.20018999 56.86328125 280.31640625 C57.66290283 280.35451416 58.46252441 280.39262207 59.28637695 280.43188477 C60.78430786 280.49653931 60.78430786 280.49653931 62.3125 280.5625 C65.509375 280.706875 68.70625 280.85125 72 281 C72 290.57 72 300.14 72 310 C27.24819845 314.0683456 27.24819845 314.0683456 11.89453125 302.6171875 C5.11018706 296.82601535 0.81113181 290.12064816 -0.22323322 281.04031205 C-0.58548044 275.4379216 -0.5014558 269.82878318 -0.45410156 264.21801758 C-0.4529716 262.33464584 -0.45360985 260.45127233 -0.45587158 258.56790161 C-0.45701385 253.4838478 -0.43358377 248.40017558 -0.40557575 243.31621003 C-0.38048049 237.99245812 -0.37821371 232.66869635 -0.37347412 227.34489441 C-0.36106816 217.27641736 -0.32827883 207.20811515 -0.28807616 197.1397149 C-0.24328426 185.67174624 -0.22135277 174.20376901 -0.20129442 162.73573458 C-0.15954405 139.15705637 -0.08842763 115.57854539 0 92 C-11.22 92 -22.44 92 -34 92 C-34 83.09 -34 74.18 -34 65 C-22.78 65 -11.56 65 0 65 C0 43.55 0 22.1 0 0 Z " fill="#FCFDFE" transform="translate(1743,1571)"/>
<path d="M0 0 C11.22 0 22.44 0 34 0 C34 106.59 34 213.18 34 323 C22.78 323 11.56 323 0 323 C0 216.41 0 109.82 0 0 Z " fill="#FCFEFE" transform="translate(1652,1554)"/>
<path d="M0 0 C3.795 0.04125 7.59 0.0825 11.5 0.125 C11.5 12.005 11.5 23.885 11.5 36.125 C9.19 35.795 6.88 35.465 4.5 35.125 C-11.18979332 34.06267024 -25.13860055 36.87856785 -37.5859375 46.78515625 C-42.33103879 51.16764063 -45.4837028 56.46067444 -48.5 62.125 C-49.07234375 63.18847656 -49.07234375 63.18847656 -49.65625 64.2734375 C-55.42560003 76.03067355 -55.94726815 88.74951342 -55.93237305 101.58544922 C-55.94141383 103.18356064 -55.95174663 104.78166519 -55.96325684 106.37976074 C-55.99058135 110.67220213 -56.00007754 114.9645111 -56.00611091 119.2570281 C-56.01555924 123.76003756 -56.04176729 128.26295056 -56.06611633 132.76589966 C-56.10960869 141.27232941 -56.13826127 149.77874025 -56.16143972 158.28524697 C-56.1885845 167.97830907 -56.23248989 177.67127329 -56.27772844 187.3642652 C-56.37032721 207.28447106 -56.439909 227.20466772 -56.5 247.125 C-67.72 247.125 -78.94 247.125 -90.5 247.125 C-90.5 167.265 -90.5 87.405 -90.5 5.125 C-79.94 5.125 -69.38 5.125 -58.5 5.125 C-58.17 16.675 -57.84 28.225 -57.5 40.125 C-54.86 35.175 -52.22 30.225 -49.5 25.125 C-46.54099874 21.50844291 -43.81107989 18.33645448 -40.5 15.125 C-39.86449219 14.48046875 -39.22898437 13.8359375 -38.57421875 13.171875 C-27.52136378 2.64534645 -14.74293869 -0.22746478 0 0 Z " fill="#FCFDFE" transform="translate(2141.5,1629.875)"/>
<path d="M0 0 C3.609375 0.04125 7.21875 0.0825 10.9375 0.125 C10.9375 12.335 10.9375 24.545 10.9375 37.125 C8.6275 36.465 6.3175 35.805 3.9375 35.125 C-11.79809283 33.78513764 -25.70736261 36.72792496 -38.2109375 46.8671875 C-48.89785457 56.73518372 -55.56663056 71.76581755 -56.2011652 86.30148792 C-56.20761775 87.50627135 -56.2140703 88.71105478 -56.22071838 89.9523468 C-56.22565636 90.62632151 -56.23059434 91.30029622 -56.23568195 91.99469441 C-56.25099945 94.24556537 -56.2594019 96.49640793 -56.26782227 98.74731445 C-56.27740531 100.36379749 -56.28741565 101.98027803 -56.29782104 103.59675598 C-56.32482992 107.9806017 -56.34586122 112.36445814 -56.36582303 116.74834085 C-56.38770738 121.3314485 -56.41508408 125.91452327 -56.44187927 130.49760437 C-56.49177305 139.17433183 -56.53672418 147.85107759 -56.57990164 156.52784079 C-56.62930235 166.40687151 -56.68420997 176.28586922 -56.73958123 186.164868 C-56.85335039 206.4848827 -56.9594735 226.80492779 -57.0625 247.125 C-68.2825 247.125 -79.5025 247.125 -91.0625 247.125 C-91.0625 167.595 -91.0625 88.065 -91.0625 6.125 C-80.8325 6.125 -70.6025 6.125 -60.0625 6.125 C-59.5675 23.945 -59.5675 23.945 -59.0625 42.125 C-56.4225 36.845 -53.7825 31.565 -51.0625 26.125 C-41.87938656 13.29565034 -30.26389318 3.88028831 -14.6730957 0.52416992 C-9.79685443 -0.22142575 -4.9201447 -0.08007148 0 0 Z " fill="#FCFEFE" transform="translate(1236.0625,1629.875)"/>
<path d="M0 0 C0.33 0 0.66 0 1 0 C1.07017298 7.30313464 1.12314691 14.60619408 1.15543652 21.90960026 C1.17095066 25.30256807 1.19192002 28.69530168 1.22631836 32.08813477 C1.64931853 77.11691777 1.64931853 77.11691777 -14 94 C-23.09685666 103.20645734 -31.48907728 106.1808615 -44.1875 106.375 C-45.09564453 106.41238281 -46.00378906 106.44976563 -46.93945312 106.48828125 C-54.54304593 106.58625167 -60.23162971 104.54396626 -65.8203125 99.28808594 C-74.6571282 89.80932878 -75.21588189 79.80652979 -75.3125 67.375 C-75.34150391 66.15425781 -75.37050781 64.93351562 -75.40039062 63.67578125 C-75.47812395 52.49414167 -73.16051145 42.84865368 -65.53125 34.3671875 C-56.23751574 25.2772632 -43.11533321 20.89761317 -31.09765625 16.65112305 C-25.61905674 14.68448934 -20.3878811 12.42732577 -15.1875 9.8125 C-14.2284375 9.33103516 -14.2284375 9.33103516 -13.25 8.83984375 C-8.48562672 6.38146777 -3.8100071 3.8100071 0 0 Z " fill="#019EE3" transform="translate(1563,1747)"/>
<path d="M0 0 C12.68014872 8.07790192 17.65410333 20.16267826 21.06640625 34.31640625 C23.57367652 46.37208922 23.06640625 57.86254726 23.06640625 70.31640625 C-3.99359375 70.31640625 -31.05359375 70.31640625 -58.93359375 70.31640625 C-58.93359375 23.27979675 -58.93359375 23.27979675 -43.703125 6.84375 C-40.14162346 3.76969459 -36.10975221 1.45412286 -31.93359375 -0.68359375 C-30.82757812 -1.25013672 -30.82757812 -1.25013672 -29.69921875 -1.828125 C-20.90548415 -4.54822087 -8.23010967 -4.10789822 0 0 Z " fill="#019EE3" transform="translate(1357.93359375,1659.68359375)"/>
</svg>
